<?xml version="1.0" standalone="no"?><!DOCTYPE svg PUBLIC "-//W3C//DTD SVG 1.1//EN" "http://www.w3.org/Graphics/SVG/1.1/DTD/svg11.dtd"><svg t="1781599612332" class="icon" viewBox="0 0 1024 1024" version="1.1" xmlns="http://www.w3.org/2000/svg" p-id="1690" xmlns:xlink="http://www.w3.org/1999/xlink" width="200" height="200"><path d="M746.666667 918.42a474.133333 474.133333 0 0 1-66.586667 31.82 53.486667 53.486667 0 0 1-68.833333-30.053333 106.706667 106.706667 0 0 0-198 0.113333A53.56 53.56 0 0 1 385.333333 949.333333a52.62 52.62 0 0 1-40.5 1.186667 468.113333 468.113333 0 0 1-128.52-73.92c-22.5-18.233333-26.246667-51.52-8.36-74.193333A106.706667 106.706667 0 0 0 108.666667 630.753333c-28.566667 4.2-55.553333-15.64-60.146667-44.233333a468.1 468.1 0 0 1 0-148.266667A53.226667 53.226667 0 0 1 108.553333 394a106.666667 106.666667 0 0 0 107.62-52.473333 106.246667 106.246667 0 0 0-8.606666-119.073334 53.586667 53.586667 0 0 1-11.253334-38.733333 52.586667 52.586667 0 0 1 19.266667-35.72 474.446667 474.446667 0 0 1 127.96-74.16 53.48 53.48 0 0 1 68.846667 30 106.74 106.74 0 0 0 152.173333 52.506667A107.333333 107.333333 0 0 0 610.46 103.333333a53.233333 53.233333 0 0 1 68.28-30.073333A468 468 0 0 1 807.333333 147.073333c22.52 18.213333 26.3 51.5 8.426667 74.186667a106.18 106.18 0 0 0-8.48 119.526667l0.3 0.513333a106.166667 106.166667 0 0 0 107.84 52.233333c28.58-4.18 55.546667 15.686667 60.113333 44.286667a467.913333 467.913333 0 0 1-0.1 148.266667 52.626667 52.626667 0 0 1-21.253333 34.5 53.54 53.54 0 0 1-39.106667 9.666666 106.213333 106.213333 0 0 0-107.413333 52.413334 106.246667 106.246667 0 0 0 8.5 119.073333 53.473333 53.473333 0 0 1-8.326667 74.666667 473.94 473.94 0 0 1-61.166666 42.013333zM437.76 830.6a149.4 149.4 0 0 1 213.053333 73.633333 10.786667 10.786667 0 0 0 13.94 6.18 431.333333 431.333333 0 0 0 116.226667-67.173333 10.793333 10.793333 0 0 0 1.606667-15.166667A149.373333 149.373333 0 0 1 921.066667 588c5.953333 0.846667 11.333333-2.973333 12.253333-8.666667a425.333333 425.333333 0 0 0 0.093333-134.773333 10.52 10.52 0 0 0-11.806666-8.8A149.333333 149.333333 0 0 1 770.666667 362.666667l-0.28-0.486667a149.333333 149.333333 0 0 1 11.886666-167.28 10.526667 10.526667 0 0 0-1.74-14.626667A425.746667 425.746667 0 0 0 663.606667 113.133333a10.56 10.56 0 0 0-13.5 5.953334A149.286667 149.286667 0 0 1 511.4 213.226667a148.486667 148.486667 0 0 1-84.526667-26.153334 149.246667 149.246667 0 0 1-54.046666-67.246666 10.786667 10.786667 0 0 0-13.933334-6.173334 431.793333 431.793333 0 0 0-116.406666 67.46c-4.493333 3.653333-5.1 10.233333-1.366667 14.98a149.333333 149.333333 0 0 1-138.606667 240.14 10.586667 10.586667 0 0 0-11.906666 8.74 425.493333 425.493333 0 0 0 0 134.773334 10.526667 10.526667 0 0 0 11.813333 8.793333 149.38 149.38 0 0 1 139.013333 240.293333 10.526667 10.526667 0 0 0 1.726667 14.626667A425.726667 425.726667 0 0 0 360 910.666667c5.413333 2.053333 11.4-0.706667 13.646667-6.28a149.14 149.14 0 0 1 54-67.433334q4.98-3.38 10.113333-6.353333z m351.406667-158.6zM576 622.82c-61.133333 35.286667-139.573333 14.273333-174.86-46.82S386.866667 436.406667 448 401.12 587.553333 386.846667 622.84 448 637.113333 587.526667 576 622.82zM469.333333 438.066667A85.333333 85.333333 0 1 0 585.893333 469.333333 85.426667 85.426667 0 0 0 469.333333 438.066667z" fill="#5C5C66" p-id="1691"></path></svg>